<svg width="24" height="24" viewBox="0 0 24 24" fill="none" xmlns="http://www.w3.org/2000/svg">
<path d="M20.2408 15.7745L19.1348 13.9285C18.7158 13.2295 18.4948 12.4295 18.4948 11.6165V8.98949C18.4948 5.41049 15.5808 2.4995 11.9998 2.4995C8.41883 2.4995 5.50482 5.41049 5.50482 8.98949V11.6165C5.50482 12.4305 5.28382 13.2295 4.86482 13.9285L3.75882 15.7745C3.42082 16.3375 3.41283 17.0145 3.73683 17.5865C4.06083 18.1585 4.64682 18.5005 5.30382 18.5005H9.56682C9.53282 18.6655 9.50083 18.8315 9.50083 19.0005C9.50083 20.3785 10.6228 21.5005 12.0008 21.5005C13.3788 21.5005 14.5008 20.3785 14.5008 19.0005C14.5008 18.8315 14.4688 18.6655 14.4348 18.5005H18.6978C19.3558 18.5005 19.9418 18.1595 20.2658 17.5865C20.5868 17.0145 20.5788 16.3375 20.2408 15.7745ZM13.4988 18.9995C13.4988 19.8265 12.8258 20.4995 11.9988 20.4995C11.1718 20.4995 10.4988 19.8265 10.4988 18.9995C10.4988 18.8275 10.5388 18.6605 10.5958 18.4995H13.4018C13.4588 18.6605 13.4988 18.8265 13.4988 18.9995ZM19.3928 17.0935C19.2488 17.3475 18.9878 17.4995 18.6958 17.4995H5.30182C5.00982 17.4995 4.74883 17.3475 4.60483 17.0935C4.46083 16.8395 4.46482 16.5395 4.61482 16.2895L5.72083 14.4435C6.23283 13.5895 6.50383 12.6125 6.50383 11.6175V8.99049C6.50383 5.96349 8.96883 3.5005 11.9988 3.5005C15.0288 3.5005 17.4938 5.96349 17.4938 8.99049V11.6175C17.4938 12.6125 17.7648 13.5895 18.2768 14.4435L19.3828 16.2895C19.5328 16.5385 19.5368 16.8395 19.3928 17.0935Z" fill="#373636"/>
</svg>
