<svg width="16" height="20" viewBox="0 0 16 20" fill="none" xmlns="http://www.w3.org/2000/svg">
<path d="M11 0.250732H5C2.381 0.250732 0.25 2.38173 0.25 5.00073V17.9988C0.25 18.6518 0.608988 19.2457 1.18799 19.5487C1.76799 19.8517 2.46001 19.8088 2.99701 19.4368L7.85599 16.0697C7.94199 16.0107 8.05599 16.0107 8.14099 16.0697L13.004 19.4368C13.303 19.6438 13.65 19.7488 14 19.7488C14.278 19.7488 14.557 19.6827 14.812 19.5477C15.391 19.2447 15.75 18.6507 15.75 17.9977V5.00073C15.75 2.38173 13.619 0.250732 11 0.250732ZM14.25 17.9988C14.25 18.1308 14.166 18.1947 14.116 18.2207C14.067 18.2477 13.967 18.2807 13.857 18.2047L8.99399 14.8378C8.69599 14.6308 8.34699 14.5277 7.99799 14.5277C7.64899 14.5277 7.29901 14.6318 7.00101 14.8378L2.142 18.2037C2.034 18.2777 1.934 18.2457 1.884 18.2197C1.834 18.1937 1.75 18.1298 1.75 17.9988V5.00073C1.75 3.20873 3.208 1.75073 5 1.75073H11C12.792 1.75073 14.25 3.20873 14.25 5.00073V17.9988Z" fill="#373636"/>
</svg>
