<svg width="24" height="24" viewBox="0 0 24 24" fill="none" xmlns="http://www.w3.org/2000/svg">
<path d="M3.2567 15.8197L3.96999 15.5879L3.96999 15.5879L3.2567 15.8197ZM2.1462 9.65157L2.86751 9.85703L2.1462 9.65157ZM6.78341 4.96556L6.34257 4.3588L6.34257 4.3588L6.78341 4.96556ZM2.25948 9.30291L2.9638 9.56067L2.25948 9.30291ZM6.28038 21.678L5.86209 22.3005L5.86209 22.3005L6.28038 21.678ZM5.9838 21.4625L5.52101 22.0527L5.52101 22.0527L5.9838 21.4625ZM21.7228 15.8197L21.0095 15.5879L21.7228 15.8197ZM18.9957 21.4625L19.4585 22.0527L19.4585 22.0527L18.9957 21.4625ZM18.6991 21.678L19.1174 22.3005L19.1174 22.3005L18.6991 21.678ZM18.1961 4.96556L18.6369 4.3588L18.6369 4.3588L18.1961 4.96556ZM22.72 9.30291L22.0157 9.56067L22.72 9.30291ZM22.8333 9.65157L22.112 9.85703L22.8333 9.65157ZM12.6731 2.00336L12.6456 2.75286L12.6731 2.00336ZM12.3065 2.00336L12.3339 2.75286L12.3065 2.00336ZM10.4898 17.0697C10.0755 17.0697 9.73975 17.4054 9.73975 17.8197C9.73975 18.2339 10.0755 18.5697 10.4898 18.5697V17.0697ZM14.4898 18.5697C14.904 18.5697 15.2398 18.2339 15.2398 17.8197C15.2398 17.4054 14.904 17.0697 14.4898 17.0697V18.5697ZM3.96999 15.5879C3.45564 14.0049 3.08925 12.874 2.897 11.9558C2.70835 11.055 2.70428 10.4301 2.86751 9.85703L1.42489 9.44611C1.17067 10.3386 1.21253 11.2303 1.42884 12.2633C1.64154 13.2791 2.03913 14.4994 2.54341 16.0514L3.96999 15.5879ZM6.34257 4.3588C5.02235 5.31799 3.9834 6.07158 3.21425 6.76835C2.43206 7.47693 1.8741 8.17368 1.55517 9.04515L2.9638 9.56067C3.16857 9.00112 3.53917 8.49798 4.22131 7.88002C4.9165 7.25026 5.87766 6.55068 7.22425 5.57232L6.34257 4.3588ZM2.86751 9.85703C2.89597 9.7571 2.92809 9.65824 2.9638 9.56067L1.55517 9.04515C1.50685 9.17717 1.4634 9.31091 1.42489 9.44611L2.86751 9.85703ZM12.4898 21.7779C10.8253 21.7779 9.63648 21.7768 8.70389 21.676C7.7888 21.577 7.19324 21.3878 6.69868 21.0555L5.86209 22.3005C6.63235 22.8181 7.49329 23.0538 8.54259 23.1673C9.57439 23.2789 10.8579 23.2779 12.4898 23.2779V21.7779ZM2.54341 16.0514C3.04769 17.6034 3.44334 18.8244 3.86832 19.7712C4.30051 20.7341 4.79074 21.4801 5.52101 22.0527L6.44658 20.8723C5.97771 20.5046 5.6137 19.9967 5.23679 19.157C4.85267 18.3012 4.48435 17.1709 3.96999 15.5879L2.54341 16.0514ZM6.69868 21.0555C6.61244 20.9975 6.52835 20.9364 6.44658 20.8723L5.52101 22.0527C5.63164 22.1394 5.74541 22.2221 5.86209 22.3005L6.69868 21.0555ZM21.0095 15.5879C20.4952 17.1709 20.1268 18.3012 19.7427 19.157C19.3658 19.9967 19.0018 20.5046 18.5329 20.8723L19.4585 22.0527C20.1888 21.4801 20.679 20.7341 21.1112 19.7712C21.5362 18.8244 21.9318 17.6034 22.4361 16.0514L21.0095 15.5879ZM12.4898 23.2779C14.1216 23.2779 15.4051 23.2789 16.4369 23.1673C17.4862 23.0538 18.3472 22.8181 19.1174 22.3005L18.2808 21.0555C17.7863 21.3878 17.1907 21.577 16.2756 21.676C15.343 21.7768 14.1542 21.7779 12.4898 21.7779V23.2779ZM18.5329 20.8723C18.4512 20.9364 18.3671 20.9975 18.2808 21.0555L19.1174 22.3005C19.2341 22.2221 19.3479 22.1394 19.4585 22.0527L18.5329 20.8723ZM17.7553 5.57232C19.1018 6.55068 20.063 7.25026 20.7582 7.88002C21.4403 8.49798 21.8109 9.00112 22.0157 9.56067L23.4243 9.04515C23.1054 8.17368 22.5474 7.47693 21.7653 6.76835C20.9961 6.07158 19.9572 5.31799 18.6369 4.3588L17.7553 5.57232ZM22.4361 16.0514C22.9404 14.4994 23.338 13.2791 23.5507 12.2633C23.767 11.2303 23.8088 10.3386 23.5546 9.44611L22.112 9.85703C22.2752 10.4301 22.2711 11.055 22.0825 11.9558C21.8903 12.874 21.5239 14.0049 21.0095 15.5879L22.4361 16.0514ZM22.0157 9.56067C22.0514 9.65824 22.0835 9.75709 22.112 9.85703L23.5546 9.44611C23.5161 9.31091 23.4727 9.17717 23.4243 9.04515L22.0157 9.56067ZM18.6369 4.3588C17.3167 3.3996 16.2789 2.64436 15.3786 2.12818C14.463 1.60323 13.6279 1.28789 12.7005 1.25387L12.6456 2.75286C13.241 2.7747 13.834 2.97167 14.6325 3.42948C15.4463 3.89603 16.4087 4.59396 17.7553 5.57232L18.6369 4.3588ZM7.22425 5.57232C8.57085 4.59396 9.5332 3.89603 10.347 3.42948C11.1455 2.97167 11.7385 2.7747 12.3339 2.75286L12.279 1.25387C11.3516 1.28789 10.5165 1.60323 9.6009 2.12818C8.70056 2.64436 7.6628 3.3996 6.34257 4.3588L7.22425 5.57232ZM12.7005 1.25387C12.5601 1.24871 12.4194 1.24871 12.279 1.25387L12.3339 2.75286C12.4378 2.74905 12.5417 2.74905 12.6456 2.75286L12.7005 1.25387ZM10.4898 18.5697H14.4898V17.0697H10.4898V18.5697Z" fill="#373636"/>
</svg>
