<svg width="20" height="20" viewBox="0 0 20 20" fill="none" xmlns="http://www.w3.org/2000/svg">
<path d="M3.06107 18.0451L3.50191 17.4383L3.06107 18.0451ZM1.95491 16.9389L2.56168 16.4981L1.95491 16.9389ZM18.0451 16.9389L17.4383 16.4981L18.0451 16.9389ZM16.9389 18.0451L16.4981 17.4383L16.9389 18.0451ZM16.9389 1.95491L16.4981 2.56168L16.9389 1.95491ZM18.0451 3.06107L17.4383 3.50191L18.0451 3.06107ZM3.06107 1.95491L3.50191 2.56168L3.06107 1.95491ZM1.95491 3.06107L2.56168 3.50191L1.95491 3.06107ZM6 9.25C5.58579 9.25 5.25 9.58579 5.25 10C5.25 10.4142 5.58579 10.75 6 10.75L6 9.25ZM13.2 10L13.2 9.25L13.2 9.25L13.2 10ZM11.328 5.46731C11.0338 5.17573 10.5589 5.17784 10.2673 5.47204C9.97573 5.76624 9.97784 6.24111 10.272 6.53269L11.328 5.46731ZM12.2104 7.39785L11.6824 7.93054L11.6824 7.93054L12.2104 7.39785ZM12.2104 12.6022L11.6824 12.0695L11.6824 12.0695L12.2104 12.6022ZM10.272 13.4673C9.97784 13.7589 9.97573 14.2338 10.2673 14.528C10.5589 14.8222 11.0338 14.8243 11.328 14.5327L10.272 13.4673ZM13.9841 9.74933L14.7281 9.65451L14.7281 9.6545L13.9841 9.74933ZM13.9841 10.2507L14.7281 10.3455L14.7281 10.3455L13.9841 10.2507ZM14 10L14.75 10L14 10ZM10 18.25C8.10843 18.25 6.74999 18.249 5.69804 18.135C4.66013 18.0225 4.00992 17.8074 3.50191 17.4383L2.62023 18.6518C3.42656 19.2377 4.37094 19.5 5.53648 19.6263C6.68798 19.751 8.14184 19.75 10 19.75V18.25ZM0.25 10C0.25 11.8582 0.248971 13.312 0.373728 14.4635C0.500006 15.6291 0.762324 16.5734 1.34815 17.3798L2.56168 16.4981C2.19259 15.9901 1.97745 15.3399 1.865 14.302C1.75103 13.25 1.75 11.8916 1.75 10H0.25ZM3.50191 17.4383C3.14111 17.1762 2.82382 16.8589 2.56168 16.4981L1.34815 17.3798C1.70281 17.8679 2.13209 18.2972 2.62023 18.6518L3.50191 17.4383ZM18.25 10C18.25 11.8916 18.249 13.25 18.135 14.302C18.0225 15.3399 17.8074 15.9901 17.4383 16.4981L18.6518 17.3798C19.2377 16.5734 19.5 15.6291 19.6263 14.4635C19.751 13.312 19.75 11.8582 19.75 10H18.25ZM10 19.75C11.8582 19.75 13.312 19.751 14.4635 19.6263C15.6291 19.5 16.5734 19.2377 17.3798 18.6518L16.4981 17.4383C15.9901 17.8074 15.3399 18.0225 14.302 18.135C13.25 18.249 11.8916 18.25 10 18.25V19.75ZM17.4383 16.4981C17.1762 16.8589 16.8589 17.1762 16.4981 17.4383L17.3798 18.6518C17.8679 18.2972 18.2972 17.8679 18.6518 17.3798L17.4383 16.4981ZM10 1.75C11.8916 1.75 13.25 1.75103 14.302 1.865C15.3399 1.97745 15.9901 2.19259 16.4981 2.56168L17.3798 1.34815C16.5734 0.762324 15.6291 0.500006 14.4635 0.373728C13.312 0.248971 11.8582 0.25 10 0.25V1.75ZM19.75 10C19.75 8.14184 19.751 6.68798 19.6263 5.53648C19.5 4.37094 19.2377 3.42656 18.6518 2.62023L17.4383 3.50191C17.8074 4.00992 18.0225 4.66013 18.135 5.69804C18.249 6.74999 18.25 8.10843 18.25 10H19.75ZM16.4981 2.56168C16.8589 2.82382 17.1762 3.14111 17.4383 3.50191L18.6518 2.62023C18.2972 2.13209 17.8679 1.70281 17.3798 1.34815L16.4981 2.56168ZM10 0.25C8.14184 0.25 6.68798 0.248971 5.53648 0.373728C4.37094 0.500006 3.42656 0.762324 2.62023 1.34815L3.50191 2.56168C4.00992 2.19259 4.66013 1.97745 5.69804 1.865C6.74999 1.75103 8.10843 1.75 10 1.75V0.25ZM1.75 10C1.75 8.10843 1.75103 6.74999 1.865 5.69804C1.97745 4.66013 2.19259 4.00992 2.56168 3.50191L1.34815 2.62023C0.762324 3.42656 0.500006 4.37094 0.373728 5.53648C0.248971 6.68798 0.25 8.14184 0.25 10H1.75ZM2.62023 1.34815C2.13209 1.70281 1.70281 2.13209 1.34815 2.62023L2.56168 3.50191C2.82382 3.14111 3.14111 2.82382 3.50191 2.56168L2.62023 1.34815ZM6 10.75L13.2 10.75L13.2 9.25L6 9.25L6 10.75ZM10.272 6.53269L11.6824 7.93054L12.7383 6.86515L11.328 5.46731L10.272 6.53269ZM11.6824 12.0695L10.272 13.4673L11.328 14.5327L12.7383 13.1348L11.6824 12.0695ZM11.6824 7.93054C12.2573 8.50033 12.6427 8.88386 12.9018 9.20649C13.1514 9.51728 13.2215 9.698 13.2401 9.84416L14.7281 9.6545C14.6601 9.12131 14.4057 8.68367 14.0713 8.26724C13.7464 7.86265 13.2882 7.41012 12.7383 6.86515L11.6824 7.93054ZM12.7383 13.1348C13.2882 12.5899 13.7464 12.1373 14.0713 11.7328C14.4057 11.3163 14.6601 10.8787 14.7281 10.3455L13.2401 10.1558C13.2215 10.302 13.1514 10.4827 12.9018 10.7935C12.6427 11.1161 12.2573 11.4997 11.6824 12.0695L12.7383 13.1348ZM13.2401 9.84416C13.2467 9.89591 13.25 9.94795 13.25 10L14.75 10C14.75 9.8846 14.7427 9.76921 14.7281 9.65451L13.2401 9.84416ZM13.25 10C13.25 10.052 13.2467 10.1041 13.2401 10.1558L14.7281 10.3455C14.7427 10.2308 14.75 10.1154 14.75 10L13.25 10ZM13.2 10.75H14V9.25H13.2V10.75Z" fill="#373636"/>
</svg>
