<svg width="25" height="25" viewBox="0 0 25 25" fill="none" xmlns="http://www.w3.org/2000/svg">
<path d="M14.28 8.21975L18.28 12.2198C18.573 12.5128 18.573 12.9868 18.279 13.2818L14.279 17.2818C14.133 17.4288 13.941 17.5017 13.749 17.5017C13.557 17.5017 13.365 17.4278 13.219 17.2818C12.926 16.9888 12.926 16.5137 13.219 16.2207L15.939 13.5008H7.75C7.336 13.5008 7 13.1648 7 12.7508C7 12.3368 7.336 12.0008 7.75 12.0008H15.939L13.219 9.28079C12.926 8.98779 12.926 8.51275 13.219 8.21975C13.512 7.92675 13.987 7.92675 14.28 8.21975Z" fill="#373636"/>
<path d="M6.5 1.4H18.5C21.3167 1.4 23.6 3.68335 23.6 6.5V18.5C23.6 21.3167 21.3167 23.6 18.5 23.6H6.5C3.68335 23.6 1.4 21.3167 1.4 18.5V6.5C1.4 3.68335 3.68335 1.4 6.5 1.4Z" stroke="#373636" stroke-width="1.8"/>
</svg>
