<svg width="24" height="24" viewBox="0 0 24 24" fill="none" xmlns="http://www.w3.org/2000/svg">
<path d="M12.015 15.5C11.3228 15.503 10.6452 15.3006 10.068 14.9185C9.49082 14.5364 9.03988 13.9917 8.77224 13.3533C8.5046 12.7149 8.43227 12.0114 8.56441 11.3319C8.69655 10.6524 9.02722 10.0274 9.5146 9.53579C10.002 9.04422 10.6242 8.70821 11.3025 8.57025C11.9809 8.43229 12.6849 8.49858 13.3256 8.76074C13.9662 9.0229 14.5148 9.46915 14.9018 10.0431C15.2889 10.617 15.497 11.2928 15.5 11.985C15.502 12.4446 15.4134 12.9001 15.2393 13.3255C15.0653 13.7509 14.8091 14.1379 14.4855 14.4643C14.1619 14.7907 13.7772 15.0501 13.3533 15.2279C12.9294 15.4056 12.4746 15.498 12.015 15.5ZM11.99 9.50001C11.4956 9.50199 11.0128 9.65054 10.6028 9.92689C10.1928 10.2032 9.87392 10.595 9.68653 11.0525C9.49914 11.5101 9.45165 12.013 9.55005 12.4975C9.64845 12.9821 9.88833 13.4266 10.2394 13.7748C10.5904 14.123 11.0368 14.3594 11.5221 14.4539C12.0075 14.5484 12.5099 14.4969 12.966 14.3058C13.422 14.1148 13.8112 13.7928 14.0842 13.3806C14.3573 12.9684 14.502 12.4845 14.5 11.99C14.4987 11.6617 14.4327 11.3369 14.3059 11.0341C14.179 10.7312 13.9938 10.4564 13.7607 10.2252C13.5276 9.99394 13.2513 9.8109 12.9475 9.68647C12.6437 9.56205 12.3183 9.49869 11.99 9.50001ZM12.54 21.5H11.54C11.0098 21.5024 10.5003 21.2941 10.1235 20.9209C9.74678 20.5478 9.53367 20.0403 9.53102 19.51C9.53199 19.3883 9.4965 19.269 9.42914 19.1676C9.36178 19.0662 9.26561 18.9873 9.15302 18.941H9.14602C9.03998 18.8975 8.92342 18.8864 8.81109 18.9092C8.69876 18.932 8.59572 18.9876 8.51502 19.069C8.33056 19.2592 8.11029 19.411 7.8669 19.5156C7.62351 19.6203 7.36181 19.6758 7.09689 19.6788C6.83197 19.6819 6.56906 19.6325 6.32331 19.5335C6.07756 19.4345 5.85383 19.2879 5.66502 19.102L4.95702 18.402C4.77009 18.2167 4.62157 17.9964 4.51997 17.7536C4.41837 17.5108 4.36568 17.2504 4.36494 16.9872C4.3642 16.724 4.41541 16.4632 4.51564 16.2199C4.61587 15.9765 4.76314 15.7553 4.94902 15.569C5.03299 15.4824 5.08991 15.3732 5.11282 15.2547C5.13573 15.1363 5.12363 15.0137 5.07802 14.902C5.03411 14.7946 4.9592 14.7027 4.86284 14.6381C4.76649 14.5734 4.65306 14.5389 4.53702 14.539C4.27162 14.543 4.00806 14.4943 3.76161 14.3957C3.51516 14.2971 3.29072 14.1506 3.10127 13.9647C2.91182 13.7788 2.76113 13.5571 2.65792 13.3126C2.55472 13.068 2.50105 12.8054 2.50002 12.54V11.54C2.49763 11.0097 2.70591 10.5002 3.07908 10.1235C3.45225 9.74677 3.95976 9.53365 4.49002 9.53101C4.61175 9.53197 4.73099 9.49649 4.8324 9.42912C4.9338 9.36176 5.01272 9.2656 5.05902 9.15301V9.14601C5.10214 9.0399 5.11299 8.92344 5.09022 8.81119C5.06745 8.69895 5.01207 8.59592 4.93102 8.51501C4.74109 8.33034 4.58956 8.10994 4.48515 7.86649C4.38073 7.62304 4.32549 7.36134 4.32261 7.09645C4.31973 6.83157 4.36926 6.56873 4.46836 6.32306C4.56745 6.0774 4.71416 5.85375 4.90002 5.66501L5.60002 4.95401C5.78496 4.76741 6.00485 4.61908 6.24713 4.51749C6.4894 4.4159 6.74932 4.36304 7.01203 4.36192C7.27475 4.36081 7.53511 4.41147 7.77824 4.511C8.02137 4.61053 8.24251 4.75699 8.42902 4.94201C8.51407 5.02908 8.62326 5.08868 8.74251 5.1131C8.86176 5.13752 8.98559 5.12564 9.09802 5.07901C9.20604 5.03575 9.29858 4.96105 9.36366 4.86459C9.42873 4.76814 9.46335 4.65436 9.46302 4.53801C9.45905 4.27272 9.5077 4.00928 9.60614 3.7629C9.70459 3.51653 9.85088 3.29211 10.0366 3.10261C10.2223 2.9131 10.4437 2.76228 10.688 2.65885C10.9323 2.55542 11.1947 2.50143 11.46 2.50001H12.46C12.9903 2.49761 13.4998 2.7059 13.8765 3.07907C14.2533 3.45224 14.4664 3.95974 14.469 4.49C14.4659 4.61039 14.4995 4.72887 14.5654 4.82964C14.6314 4.93042 14.7264 5.00868 14.838 5.05401C14.9472 5.09853 15.0668 5.1108 15.1828 5.08935C15.2987 5.06791 15.406 5.01364 15.492 4.93301C15.6768 4.74144 15.8981 4.58885 16.1429 4.48425C16.3876 4.37965 16.6509 4.32516 16.917 4.32401C17.1798 4.32228 17.4403 4.37264 17.6836 4.47219C17.9268 4.57175 18.1479 4.71851 18.334 4.90401L19.042 5.60401C19.2286 5.78894 19.3769 6.00883 19.4785 6.25111C19.5801 6.49339 19.633 6.75331 19.6341 7.01602C19.6352 7.27873 19.5846 7.53909 19.485 7.78222C19.3855 8.02535 19.239 8.24649 19.054 8.433C18.9673 8.51571 18.9073 8.6225 18.8818 8.73959C18.8564 8.85669 18.8665 8.97874 18.911 9.09001L18.918 9.10401C18.9613 9.21165 19.0359 9.30381 19.1322 9.36853C19.2285 9.43326 19.342 9.46757 19.458 9.46701C19.7233 9.46251 19.9869 9.51062 20.2334 9.60858C20.48 9.70654 20.7047 9.85239 20.8946 10.0377C21.0845 10.223 21.2357 10.4441 21.3397 10.6883C21.4436 10.9324 21.4981 11.1947 21.5 11.46V12.46C21.5012 12.7227 21.4506 12.9831 21.3511 13.2263C21.2517 13.4695 21.1052 13.6906 20.9203 13.8772C20.7353 14.0638 20.5153 14.2121 20.273 14.3136C20.0307 14.4152 19.7708 14.468 19.508 14.469C19.3876 14.4658 19.2692 14.4995 19.1684 14.5654C19.0676 14.6313 18.9893 14.7264 18.944 14.838C18.8997 14.9472 18.8876 15.0668 18.909 15.1827C18.9305 15.2985 18.9846 15.4059 19.065 15.492C19.2551 15.6761 19.4068 15.8961 19.5113 16.1392C19.6158 16.3824 19.671 16.6438 19.6737 16.9084C19.6764 17.1731 19.6265 17.4356 19.527 17.6808C19.4275 17.926 19.2803 18.1491 19.094 18.337L18.394 19.045C18.2091 19.2316 17.9892 19.3799 17.7469 19.4815C17.5046 19.5831 17.2447 19.636 16.982 19.6371C16.7193 19.6382 16.4589 19.5875 16.2158 19.488C15.9727 19.3885 15.7515 19.242 15.565 19.057C15.4823 18.9703 15.3755 18.9103 15.2584 18.8848C15.1413 18.8593 15.0193 18.8695 14.908 18.914C14.7983 18.9579 14.704 19.0333 14.6369 19.1306C14.5698 19.2279 14.533 19.3428 14.531 19.461C14.5351 19.7259 14.4868 19.9889 14.3888 20.235C14.2907 20.4811 14.145 20.7054 13.9599 20.8949C13.7749 21.0845 13.5541 21.2355 13.3104 21.3393C13.0667 21.4432 12.8049 21.4978 12.54 21.5ZM9.58102 18.039C9.85937 18.1643 10.0964 18.3661 10.2646 18.6208C10.4328 18.8756 10.5252 19.1728 10.531 19.478C10.5289 19.611 10.5531 19.7432 10.6024 19.8668C10.6516 19.9904 10.7248 20.1031 10.8177 20.1983C10.9107 20.2935 11.0216 20.3693 11.144 20.4215C11.2664 20.4736 11.398 20.501 11.531 20.502H12.531C12.7962 20.502 13.0506 20.3966 13.2381 20.2091C13.4257 20.0216 13.531 19.7672 13.531 19.502C13.5298 19.1818 13.6234 18.8685 13.8002 18.6015C13.9769 18.3345 14.2288 18.1259 14.524 18.002C14.8123 17.881 15.13 17.8483 15.4369 17.9079C15.7437 17.9675 16.026 18.1169 16.248 18.337C16.3409 18.4331 16.4519 18.5097 16.5746 18.5625C16.6973 18.6153 16.8293 18.6432 16.9629 18.6446C17.0965 18.646 17.229 18.6209 17.3528 18.5706C17.4766 18.5204 17.5892 18.4461 17.684 18.352L18.384 17.644C18.4768 17.5506 18.5502 17.4397 18.6 17.3179C18.6498 17.196 18.6751 17.0655 18.6743 16.9338C18.6736 16.8022 18.6468 16.672 18.5957 16.5507C18.5445 16.4294 18.4698 16.3194 18.376 16.227C18.1524 16.004 17.9989 15.7205 17.9342 15.4114C17.8696 15.1022 17.8966 14.781 18.012 14.487V14.476L18.017 14.463C18.1344 14.1726 18.3358 13.9239 18.5953 13.7486C18.8549 13.5733 19.1608 13.4795 19.474 13.479C19.6069 13.4809 19.7388 13.4564 19.8622 13.4071C19.9856 13.3578 20.098 13.2845 20.193 13.1916C20.288 13.0986 20.3637 12.9878 20.4157 12.8655C20.4677 12.7433 20.495 12.6119 20.496 12.479V11.479C20.496 11.2138 20.3907 10.9594 20.2031 10.7719C20.0156 10.5844 19.7612 10.479 19.496 10.479C19.1772 10.4848 18.8641 10.3945 18.5973 10.2199C18.3305 10.0453 18.1224 9.79445 18 9.50001V9.49301C17.8764 9.20342 17.8418 8.88359 17.9005 8.57425C17.9593 8.26492 18.1088 7.98007 18.33 7.75601C18.4262 7.66322 18.5029 7.55223 18.5558 7.42951C18.6087 7.30678 18.6367 7.17477 18.6381 7.04114C18.6395 6.90752 18.6143 6.77495 18.564 6.65115C18.5137 6.52735 18.4392 6.41478 18.345 6.32001L17.637 5.62001C17.5437 5.52744 17.433 5.45419 17.3114 5.40443C17.1897 5.35467 17.0595 5.32938 16.928 5.33001C16.7961 5.3304 16.6657 5.35714 16.5442 5.40865C16.4228 5.46017 16.3129 5.53543 16.221 5.63001C15.998 5.85358 15.7145 6.00713 15.4054 6.07179C15.0963 6.13646 14.775 6.10942 14.481 5.99401H14.47H14.457C14.1667 5.87661 13.9179 5.67525 13.7426 5.4157C13.5673 5.15615 13.4735 4.8502 13.473 4.53701C13.4749 4.40413 13.4504 4.2722 13.4011 4.14881C13.3518 4.02541 13.2785 3.91299 13.1856 3.81801C13.0927 3.72302 12.9819 3.64736 12.8596 3.59535C12.7373 3.54335 12.6059 3.51605 12.473 3.51501H11.473C11.2078 3.51501 10.9534 3.62036 10.7659 3.8079C10.5784 3.99543 10.473 4.24979 10.473 4.51501C10.4763 4.83254 10.3843 5.14377 10.2089 5.40848C10.0335 5.67319 9.78272 5.87924 9.48902 6.00001C9.19882 6.12021 8.87983 6.15302 8.57124 6.09439C8.26265 6.03577 7.97791 5.88826 7.75202 5.67001C7.65916 5.57396 7.54815 5.49731 7.42544 5.44451C7.30272 5.3917 7.17074 5.36379 7.03716 5.36239C6.90357 5.361 6.77103 5.38615 6.64724 5.43638C6.52345 5.48661 6.41087 5.56092 6.31602 5.65501L5.61602 6.36601C5.52344 6.45927 5.45014 6.56987 5.40033 6.69148C5.35052 6.8131 5.32517 6.94333 5.32573 7.07475C5.32629 7.20616 5.35274 7.33618 5.40358 7.45737C5.45442 7.57855 5.52865 7.68853 5.62202 7.78101C5.85051 8.00128 6.00785 8.28489 6.07379 8.59534C6.13973 8.90579 6.11125 9.22888 5.99202 9.52301C5.98457 9.54189 5.97588 9.56026 5.96602 9.57801C5.84072 9.85635 5.63896 10.0934 5.38422 10.2616C5.12947 10.4298 4.83222 10.5221 4.52702 10.528C4.39398 10.5259 4.26183 10.5501 4.13821 10.5993C4.01458 10.6486 3.90192 10.7217 3.80673 10.8147C3.71153 10.9077 3.63568 11.0186 3.58356 11.141C3.53143 11.2634 3.50406 11.3949 3.50302 11.528V12.528C3.50302 12.7932 3.60838 13.0476 3.79591 13.2351C3.98345 13.4226 4.2378 13.528 4.50302 13.528C4.82199 13.5214 5.13552 13.6113 5.40261 13.7857C5.66969 13.9602 5.87791 14.2113 6.00002 14.506V14.516V14.527C6.11743 14.8172 6.14809 15.1352 6.08826 15.4425C6.02844 15.7498 5.88072 16.0331 5.66302 16.258C5.56734 16.3505 5.49109 16.4612 5.43874 16.5836C5.38638 16.7059 5.35899 16.8375 5.35815 16.9706C5.35731 17.1037 5.38305 17.2356 5.43385 17.3586C5.48466 17.4817 5.55951 17.5933 5.65402 17.687L6.36202 18.387C6.45529 18.4796 6.56589 18.5529 6.6875 18.6027C6.80911 18.6525 6.93935 18.6779 7.07076 18.6773C7.20218 18.6767 7.3322 18.6503 7.45338 18.5994C7.57457 18.5486 7.68454 18.4744 7.77702 18.381C7.9973 18.1525 8.28091 17.9952 8.59136 17.9292C8.90181 17.8633 9.22489 17.8918 9.51902 18.011C9.54034 18.0188 9.56107 18.0282 9.58102 18.039Z" fill="#373636"/>
</svg>
